<?xml version="1.0" encoding="UTF-8" standalone="no"?>
<!DOCTYPE svg PUBLIC "-//W3C//DTD SVG 1.1//EN"
 "http://www.w3.org/Graphics/SVG/1.1/DTD/svg11.dtd">
<!-- Generated by graphviz version 2.38.0 (20140413.2041)
 -->
<!-- Title: %3 Pages: 1 -->
<svg width="1459pt" height="260pt"
 viewBox="0.00 0.00 1459.49 260.00" xmlns="http://www.w3.org/2000/svg" xmlns:xlink="http://www.w3.org/1999/xlink">
<g id="graph0" class="graph" transform="scale(1 1) rotate(0) translate(4 256)">
<title>%3</title>
<polygon fill="white" stroke="none" points="-4,4 -4,-256 1455.49,-256 1455.49,4 -4,4"/>
<!-- 2426c22aaef840b2bbc00fc28913ba36 -->
<g id="node1" class="node"><title>2426c22aaef840b2bbc00fc28913ba36</title>
<ellipse fill="none" stroke="black" cx="573.691" cy="-234" rx="469.017" ry="18"/>
<text text-anchor="middle" x="573.691" y="-230.3" font-family="Times,serif" font-size="14.00">TOP: [(&#39;商务部&#39;, &#39;ORG&#39;), (&#39;开展&#39;, &#39;v&#39;), (&#39;首批&#39;, &#39;m&#39;), (&#39;步行街&#39;, &#39;n&#39;), (&#39;改造&#39;, &#39;vn&#39;), (&#39;提升&#39;, &#39;v&#39;), (&#39;试点&#39;, &#39;vn&#39;), (&#39;工作&#39;, &#39;n&#39;), (&#39;。&#39;, &#39;w&#39;)]</text>
</g>
<!-- e8b272c45f7c4cd598cbc2bd90ca99b1 -->
<g id="node2" class="node"><title>e8b272c45f7c4cd598cbc2bd90ca99b1</title>
<ellipse fill="none" stroke="black" cx="573.691" cy="-162" rx="480.915" ry="18"/>
<text text-anchor="middle" x="573.691" y="-158.3" font-family="Times,serif" font-size="14.00">主谓句: [(&#39;商务部&#39;, &#39;ORG&#39;), (&#39;开展&#39;, &#39;v&#39;), (&#39;首批&#39;, &#39;m&#39;), (&#39;步行街&#39;, &#39;n&#39;), (&#39;改造&#39;, &#39;vn&#39;), (&#39;提升&#39;, &#39;v&#39;), (&#39;试点&#39;, &#39;vn&#39;), (&#39;工作&#39;, &#39;n&#39;), (&#39;。&#39;, &#39;w&#39;)]</text>
</g>
<!-- 2426c22aaef840b2bbc00fc28913ba36&#45;&gt;e8b272c45f7c4cd598cbc2bd90ca99b1 -->
<g id="edge1" class="edge"><title>2426c22aaef840b2bbc00fc28913ba36&#45;&gt;e8b272c45f7c4cd598cbc2bd90ca99b1</title>
<path fill="none" stroke="black" d="M573.691,-215.697C573.691,-207.983 573.691,-198.712 573.691,-190.112"/>
<polygon fill="black" stroke="black" points="577.191,-190.104 573.691,-180.104 570.191,-190.104 577.191,-190.104"/>
</g>
<!-- ca50c043ed09402c91c1043e6b415864 -->
<g id="node3" class="node"><title>ca50c043ed09402c91c1043e6b415864</title>
<ellipse fill="none" stroke="black" cx="146.691" cy="-90" rx="93.6835" ry="18"/>
<text text-anchor="middle" x="146.691" y="-86.3" font-family="Times,serif" font-size="14.00">主: [(&#39;商务部&#39;, &#39;ORG&#39;)]</text>
</g>
<!-- e8b272c45f7c4cd598cbc2bd90ca99b1&#45;&gt;ca50c043ed09402c91c1043e6b415864 -->
<g id="edge2" class="edge"><title>e8b272c45f7c4cd598cbc2bd90ca99b1&#45;&gt;ca50c043ed09402c91c1043e6b415864</title>
<path fill="none" stroke="black" d="M472.227,-144.367C396.647,-131.976 294.929,-115.301 225.433,-103.909"/>
<polygon fill="black" stroke="black" points="225.855,-100.431 215.421,-102.267 224.723,-107.339 225.855,-100.431"/>
</g>
<!-- 9f4f1505653e4adca7a04984b723c2c6 -->
<g id="node5" class="node"><title>9f4f1505653e4adca7a04984b723c2c6</title>
<ellipse fill="none" stroke="black" cx="330.691" cy="-90" rx="70.3881" ry="18"/>
<text text-anchor="middle" x="330.691" y="-86.3" font-family="Times,serif" font-size="14.00">谓: [(&#39;开展&#39;, &#39;v&#39;)]</text>
</g>
<!-- e8b272c45f7c4cd598cbc2bd90ca99b1&#45;&gt;9f4f1505653e4adca7a04984b723c2c6 -->
<g id="edge4" class="edge"><title>e8b272c45f7c4cd598cbc2bd90ca99b1&#45;&gt;9f4f1505653e4adca7a04984b723c2c6</title>
<path fill="none" stroke="black" d="M514.867,-144.055C475.541,-132.726 424.15,-117.922 385.65,-106.832"/>
<polygon fill="black" stroke="black" points="386.233,-103.357 375.655,-103.953 384.295,-110.084 386.233,-103.357"/>
</g>
<!-- a2352a7675894929bcbd850b95d2b777 -->
<g id="node7" class="node"><title>a2352a7675894929bcbd850b95d2b777</title>
<ellipse fill="none" stroke="black" cx="774.691" cy="-90" rx="313.045" ry="18"/>
<text text-anchor="middle" x="774.691" y="-86.3" font-family="Times,serif" font-size="14.00">宾: [(&#39;首批&#39;, &#39;m&#39;), (&#39;步行街&#39;, &#39;n&#39;), (&#39;改造&#39;, &#39;vn&#39;), (&#39;提升&#39;, &#39;v&#39;), (&#39;试点&#39;, &#39;vn&#39;), (&#39;工作&#39;, &#39;n&#39;)]</text>
</g>
<!-- e8b272c45f7c4cd598cbc2bd90ca99b1&#45;&gt;a2352a7675894929bcbd850b95d2b777 -->
<g id="edge6" class="edge"><title>e8b272c45f7c4cd598cbc2bd90ca99b1&#45;&gt;a2352a7675894929bcbd850b95d2b777</title>
<path fill="none" stroke="black" d="M622.347,-144.055C650.863,-134.124 687.048,-121.522 716.996,-111.093"/>
<polygon fill="black" stroke="black" points="718.19,-114.383 726.482,-107.789 715.888,-107.773 718.19,-114.383"/>
</g>
<!-- 429be4928edc4c3899960639f988bc14 -->
<g id="node14" class="node"><title>429be4928edc4c3899960639f988bc14</title>
<ellipse fill="none" stroke="black" cx="1284.69" cy="-90" rx="72.2875" ry="18"/>
<text text-anchor="middle" x="1284.69" y="-86.3" font-family="Times,serif" font-size="14.00">符号: [(&#39;。&#39;, &#39;w&#39;)]</text>
</g>
<!-- e8b272c45f7c4cd598cbc2bd90ca99b1&#45;&gt;429be4928edc4c3899960639f988bc14 -->
<g id="edge13" class="edge"><title>e8b272c45f7c4cd598cbc2bd90ca99b1&#45;&gt;429be4928edc4c3899960639f988bc14</title>
<path fill="none" stroke="black" d="M735.917,-145.028C883.966,-130.453 1096.27,-109.551 1208.47,-98.5046"/>
<polygon fill="black" stroke="black" points="1209.07,-101.962 1218.68,-97.4994 1208.38,-94.9961 1209.07,-101.962"/>
</g>
<!-- 799303b5219c4a8b8c6564e7ad0171bc -->
<g id="node4" class="node"><title>799303b5219c4a8b8c6564e7ad0171bc</title>
<ellipse fill="none" stroke="black" cx="102.691" cy="-18" rx="102.882" ry="18"/>
<text text-anchor="middle" x="102.691" y="-14.3" font-family="Times,serif" font-size="14.00">ORG: [(&#39;商务部&#39;, &#39;ORG&#39;)]</text>
</g>
<!-- ca50c043ed09402c91c1043e6b415864&#45;&gt;799303b5219c4a8b8c6564e7ad0171bc -->
<g id="edge3" class="edge"><title>ca50c043ed09402c91c1043e6b415864&#45;&gt;799303b5219c4a8b8c6564e7ad0171bc</title>
<path fill="none" stroke="black" d="M136.04,-72.055C130.928,-63.922 124.69,-53.998 118.998,-44.9426"/>
<polygon fill="black" stroke="black" points="121.835,-42.8791 113.55,-36.2753 115.908,-46.6043 121.835,-42.8791"/>
</g>
<!-- 2198702aea4c4beb84320d525e993765 -->
<g id="node6" class="node"><title>2198702aea4c4beb84320d525e993765</title>
<ellipse fill="none" stroke="black" cx="288.691" cy="-18" rx="65.7887" ry="18"/>
<text text-anchor="middle" x="288.691" y="-14.3" font-family="Times,serif" font-size="14.00">v: [(&#39;开展&#39;, &#39;v&#39;)]</text>
</g>
<!-- 9f4f1505653e4adca7a04984b723c2c6&#45;&gt;2198702aea4c4beb84320d525e993765 -->
<g id="edge5" class="edge"><title>9f4f1505653e4adca7a04984b723c2c6&#45;&gt;2198702aea4c4beb84320d525e993765</title>
<path fill="none" stroke="black" d="M320.524,-72.055C315.571,-63.8006 309.512,-53.7014 304.014,-44.5378"/>
<polygon fill="black" stroke="black" points="306.911,-42.5632 298.764,-35.789 300.908,-46.1647 306.911,-42.5632"/>
</g>
<!-- 5de90fc27a3e435e8f9680b086b65c51 -->
<g id="node8" class="node"><title>5de90fc27a3e435e8f9680b086b65c51</title>
<ellipse fill="none" stroke="black" cx="443.691" cy="-18" rx="71.4873" ry="18"/>
<text text-anchor="middle" x="443.691" y="-14.3" font-family="Times,serif" font-size="14.00">m: [(&#39;首批&#39;, &#39;m&#39;)]</text>
</g>
<!-- a2352a7675894929bcbd850b95d2b777&#45;&gt;5de90fc27a3e435e8f9680b086b65c51 -->
<g id="edge7" class="edge"><title>a2352a7675894929bcbd850b95d2b777&#45;&gt;5de90fc27a3e435e8f9680b086b65c51</title>
<path fill="none" stroke="black" d="M696.673,-72.5531C647.124,-62.101 581.64,-48.2751 523.691,-36 518.085,-34.8124 512.258,-33.5768 506.419,-32.3378"/>
<polygon fill="black" stroke="black" points="507.128,-28.9103 496.619,-30.2572 505.674,-35.7576 507.128,-28.9103"/>
</g>
<!-- f76adbbcfdfc4471a94133b5b67f1da9 -->
<g id="node9" class="node"><title>f76adbbcfdfc4471a94133b5b67f1da9</title>
<ellipse fill="none" stroke="black" cx="607.691" cy="-18" rx="74.9875" ry="18"/>
<text text-anchor="middle" x="607.691" y="-14.3" font-family="Times,serif" font-size="14.00">n: [(&#39;步行街&#39;, &#39;n&#39;)]</text>
</g>
<!-- a2352a7675894929bcbd850b95d2b777&#45;&gt;f76adbbcfdfc4471a94133b5b67f1da9 -->
<g id="edge8" class="edge"><title>a2352a7675894929bcbd850b95d2b777&#45;&gt;f76adbbcfdfc4471a94133b5b67f1da9</title>
<path fill="none" stroke="black" d="M734.265,-72.055C709.613,-61.7219 678.064,-48.4976 652.63,-37.8369"/>
<polygon fill="black" stroke="black" points="653.785,-34.5259 643.209,-33.888 651.079,-40.9817 653.785,-34.5259"/>
</g>
<!-- e3ae4d60a3a9452fa693f3e5e562d506 -->
<g id="node10" class="node"><title>e3ae4d60a3a9452fa693f3e5e562d506</title>
<ellipse fill="none" stroke="black" cx="774.691" cy="-18" rx="74.187" ry="18"/>
<text text-anchor="middle" x="774.691" y="-14.3" font-family="Times,serif" font-size="14.00">vn: [(&#39;改造&#39;, &#39;vn&#39;)]</text>
</g>
<!-- a2352a7675894929bcbd850b95d2b777&#45;&gt;e3ae4d60a3a9452fa693f3e5e562d506 -->
<g id="edge9" class="edge"><title>a2352a7675894929bcbd850b95d2b777&#45;&gt;e3ae4d60a3a9452fa693f3e5e562d506</title>
<path fill="none" stroke="black" d="M774.691,-71.6966C774.691,-63.9827 774.691,-54.7125 774.691,-46.1124"/>
<polygon fill="black" stroke="black" points="778.191,-46.1043 774.691,-36.1043 771.191,-46.1044 778.191,-46.1043"/>
</g>
<!-- 01e6e55e4a3344dfa067e1f00f934e6d -->
<g id="node11" class="node"><title>01e6e55e4a3344dfa067e1f00f934e6d</title>
<ellipse fill="none" stroke="black" cx="932.691" cy="-18" rx="65.7887" ry="18"/>
<text text-anchor="middle" x="932.691" y="-14.3" font-family="Times,serif" font-size="14.00">v: [(&#39;提升&#39;, &#39;v&#39;)]</text>
</g>
<!-- a2352a7675894929bcbd850b95d2b777&#45;&gt;01e6e55e4a3344dfa067e1f00f934e6d -->
<g id="edge10" class="edge"><title>a2352a7675894929bcbd850b95d2b777&#45;&gt;01e6e55e4a3344dfa067e1f00f934e6d</title>
<path fill="none" stroke="black" d="M812.938,-72.055C836.32,-61.696 866.26,-48.4312 890.354,-37.7568"/>
<polygon fill="black" stroke="black" points="891.886,-40.9064 899.611,-33.6556 889.05,-34.5063 891.886,-40.9064"/>
</g>
<!-- 867006b725234894912f2efe9b212077 -->
<g id="node12" class="node"><title>867006b725234894912f2efe9b212077</title>
<ellipse fill="none" stroke="black" cx="1090.69" cy="-18" rx="74.187" ry="18"/>
<text text-anchor="middle" x="1090.69" y="-14.3" font-family="Times,serif" font-size="14.00">vn: [(&#39;试点&#39;, &#39;vn&#39;)]</text>
</g>
<!-- a2352a7675894929bcbd850b95d2b777&#45;&gt;867006b725234894912f2efe9b212077 -->
<g id="edge11" class="edge"><title>a2352a7675894929bcbd850b95d2b777&#45;&gt;867006b725234894912f2efe9b212077</title>
<path fill="none" stroke="black" d="M849.178,-72.4996C903.576,-60.4494 976.509,-44.2935 1027.95,-32.8988"/>
<polygon fill="black" stroke="black" points="1028.93,-36.2659 1037.94,-30.6859 1027.42,-29.4316 1028.93,-36.2659"/>
</g>
<!-- 86a995e5ec754551bfe9a3d54d9291da -->
<g id="node13" class="node"><title>86a995e5ec754551bfe9a3d54d9291da</title>
<ellipse fill="none" stroke="black" cx="1248.69" cy="-18" rx="65.7887" ry="18"/>
<text text-anchor="middle" x="1248.69" y="-14.3" font-family="Times,serif" font-size="14.00">n: [(&#39;工作&#39;, &#39;n&#39;)]</text>
</g>
<!-- a2352a7675894929bcbd850b95d2b777&#45;&gt;86a995e5ec754551bfe9a3d54d9291da -->
<g id="edge12" class="edge"><title>a2352a7675894929bcbd850b95d2b777&#45;&gt;86a995e5ec754551bfe9a3d54d9291da</title>
<path fill="none" stroke="black" d="M912.741,-73.7941C989.792,-64.523 1087.37,-51.4831 1173.69,-36 1179.42,-34.9732 1185.36,-33.8035 1191.29,-32.5695"/>
<polygon fill="black" stroke="black" points="1192.17,-35.9618 1201.21,-30.4455 1190.7,-29.1169 1192.17,-35.9618"/>
</g>
<!-- 59d27e8fa2434eba9861afb66d8aff8d -->
<g id="node15" class="node"><title>59d27e8fa2434eba9861afb66d8aff8d</title>
<ellipse fill="none" stroke="black" cx="1391.69" cy="-18" rx="59.5901" ry="18"/>
<text text-anchor="middle" x="1391.69" y="-14.3" font-family="Times,serif" font-size="14.00">w: [(&#39;。&#39;, &#39;w&#39;)]</text>
</g>
<!-- 429be4928edc4c3899960639f988bc14&#45;&gt;59d27e8fa2434eba9861afb66d8aff8d -->
<g id="edge14" class="edge"><title>429be4928edc4c3899960639f988bc14&#45;&gt;59d27e8fa2434eba9861afb66d8aff8d</title>
<path fill="none" stroke="black" d="M1309.24,-72.9406C1324.02,-63.2684 1343.03,-50.8345 1359.07,-40.3426"/>
<polygon fill="black" stroke="black" points="1361.17,-43.147 1367.63,-34.7434 1357.34,-37.2892 1361.17,-43.147"/>
</g>
</g>
</svg>
